<svg id="education_icon" data-name="education icon" xmlns="http://www.w3.org/2000/svg" width="31" height="28" viewBox="0 0 31 28">
  <g id="Union_6" data-name="Union 6" transform="translate(-175 856)" fill="#707070">
    <path d="M 190.5002899169922 -840.5623779296875 L 176.0897979736328 -847.9998168945313 L 190.5002899169922 -855.437255859375 L 204.9099578857422 -847.9998168945313 L 190.5002899169922 -840.5623779296875 Z" stroke="none"/>
    <path d="M 190.5002899169922 -854.8745727539063 L 179.1175689697266 -848.9998168945313 L 201.8823547363281 -848.9998168945313 L 190.5002899169922 -854.8745727539063 M 179.1175689697266 -846.9998168945313 L 190.5002899169922 -841.1250610351563 L 201.8823547363281 -846.9998168945313 L 179.1175689697266 -846.9998168945313 M 190.5003051757813 -855.9999389648438 L 206.0001068115234 -847.9998168945313 L 174.9996032714844 -847.9998168945313 L 190.5003051757813 -855.9999389648438 Z M 174.9996032714844 -847.9998168945313 L 206.0001068115234 -847.9998168945313 L 190.5003051757813 -839.9996948242188 L 174.9996032714844 -847.9998168945313 Z" stroke="none" fill="#707070"/>
  </g>
  <path id="Path_24" data-name="Path 24" d="M-165.138,875.646l8.072,4.119,7.2-3.765a6.532,6.532,0,0,1,1.547,2.319,17.453,17.453,0,0,1,.574,3.681l-9.322,5-10.678-5a20.715,20.715,0,0,1,.671-3.681A7.513,7.513,0,0,1-165.138,875.646Z" transform="translate(172.744 -862)" fill="#707070" stroke="#707070" stroke-width="1"/>
  <path id="Path_25" data-name="Path 25" d="M-142.433,870v12" transform="translate(170 -861)" fill="none" stroke="#707070" stroke-width="1"/>
  <g id="Ellipse_20" data-name="Ellipse 20" transform="translate(26 20)" fill="#707070" stroke="#707070" stroke-width="1">
    <circle cx="1.5" cy="1.5" r="1.5" stroke="none"/>
    <circle cx="1.5" cy="1.5" r="1" fill="none"/>
  </g>
  <g id="Path_26" data-name="Path 26" transform="translate(25.5 21)" fill="#707070">
    <path d="M 3.337137222290039 6.5 L 0.6628628373146057 6.5 L 2 1.820019960403442 L 3.337137222290039 6.5 Z" stroke="none"/>
    <path d="M 2 3.640039920806885 L 1.325725793838501 6 L 2.674274444580078 6 L 2 3.640039920806885 M 2 0 L 4 7 L 0 7 L 2 0 Z" stroke="none" fill="#707070"/>
  </g>
</svg>
