<svg id="group_icon_component" data-name="group icon component" xmlns="http://www.w3.org/2000/svg" width="41" height="41" viewBox="0 0 41 41">
  <g id="Ellipse_9" data-name="Ellipse 9" fill="#fff" stroke="#707070" stroke-width="2">
    <circle cx="20.5" cy="20.5" r="20.5" stroke="none"/>
    <circle cx="20.5" cy="20.5" r="19.5" fill="none"/>
  </g>
  <circle id="Ellipse_10" data-name="Ellipse 10" cx="5" cy="5" r="5" transform="translate(15 11)" fill="#7b7a7a"/>
  <path id="Rectangle_18" data-name="Rectangle 18" d="M5.431,0h4.6a0,0,0,0,1,0,0V5.431a0,0,0,0,1,0,0H0a0,0,0,0,1,0,0v0A5.431,5.431,0,0,1,5.431,0Z" transform="matrix(1, 0.017, -0.017, 1, 3.39, 24.56)" fill="#7b7a7a"/>
  <g id="Rectangle_20" data-name="Rectangle 20" transform="translate(26 25)" fill="#7b7a7a" stroke="#707070" stroke-width="1">
    <path d="M0,0H7a5,5,0,0,1,5,5V5a0,0,0,0,1,0,0H0A0,0,0,0,1,0,5V0A0,0,0,0,1,0,0Z" stroke="none"/>
    <path d="M.667.5h7A3.833,3.833,0,0,1,11.5,4.333v0a.167.167,0,0,1-.167.167H.667A.167.167,0,0,1,.5,4.333V.667A.167.167,0,0,1,.667.5Z" fill="none"/>
  </g>
  <g id="Rectangle_19" data-name="Rectangle 19" transform="translate(10 22)" fill="#7b7a7a" stroke="#fff" stroke-width="1">
    <path d="M9,0h2a9,9,0,0,1,9,9V9a0,0,0,0,1,0,0H0A0,0,0,0,1,0,9V9A9,9,0,0,1,9,0Z" stroke="none"/>
    <path d="M8.25.5h3.5A7.75,7.75,0,0,1,19.5,8.25v0a.25.25,0,0,1-.25.25H.75A.25.25,0,0,1,.5,8.25v0A7.75,7.75,0,0,1,8.25.5Z" fill="none"/>
  </g>
  <circle id="Ellipse_11" data-name="Ellipse 11" cx="3.34" cy="3.34" r="3.34" transform="translate(26 17)" fill="#7b7a7a"/>
  <path id="Path_5" data-name="Path 5" d="M3.342,0A3.4,3.4,0,0,1,6.12,1.483a3.226,3.226,0,0,1,.564,1.859A3.342,3.342,0,1,1,3.342,0Z" transform="translate(6.684 16.71)" fill="#7b7a7a"/>
</svg>
