<svg id="heart" xmlns="http://www.w3.org/2000/svg" width="29" height="25.94" viewBox="0 0 29 25.94">
  <g id="Union_3" data-name="Union 3" transform="translate(-505.698 418.132)" fill="none">
    <path d="M515.2-397.118a7.936,7.936,0,0,1-.651-.586,7.952,7.952,0,0,1-.583-.654l-5.857-5.886a8.3,8.3,0,0,1,0-11.695,7.418,7.418,0,0,1,10.528,0l1.486,1.493,1.154-1.16c3.06-3.075,8.172-3.65,11.083,0,3.178,3.508,3.06,8.063,0,11.138l-6.728,6.763q-.254.255-.525.482l-5,5.03Z" stroke="none"/>
    <path d="M 520.1009521484375 -395.0277099609375 L 523.6878051757813 -398.6329650878906 L 523.751220703125 -398.6966552734375 L 523.8200073242188 -398.75439453125 C 523.9556274414063 -398.8681640625 524.0878295898438 -398.9896545410156 524.2128295898438 -399.115234375 L 530.9412841796875 -405.8778991699219 C 532.07958984375 -407.0219116210938 532.6871337890625 -408.4089660644531 532.6983032226563 -409.8890991210938 C 532.7098388671875 -411.4222412109375 532.0799560546875 -412.9346618652344 530.876708984375 -414.2629089355469 L 530.83447265625 -414.3095703125 L 530.7952270507813 -414.3587646484375 C 529.62646484375 -415.8246459960938 528.157958984375 -416.1323547363281 527.1318359375 -416.1323547363281 C 525.5602416992188 -416.1323547363281 523.9013061523438 -415.4080810546875 522.6942138671875 -414.1950073242188 L 521.54052734375 -413.0354309082031 L 520.122802734375 -411.6104431152344 L 518.7050170898438 -413.0353698730469 L 517.2188110351563 -414.5290222167969 C 516.1909790039063 -415.5622253417969 514.8250732421875 -416.1312255859375 513.3726196289063 -416.1312255859375 C 511.920166015625 -416.1312255859375 510.5542297363281 -415.5622253417969 509.5260925292969 -414.5286560058594 C 507.0914306640625 -412.0823974609375 507.0914306640625 -408.1020202636719 509.5262756347656 -405.6555480957031 L 515.383056640625 -399.7693481445313 L 515.4608764648438 -399.6911010742188 L 515.5296630859375 -399.604736328125 C 515.6650390625 -399.4347839355469 515.8118286132813 -399.2700500488281 515.9658813476563 -399.1151733398438 C 516.119873046875 -398.9604187011719 516.2837524414063 -398.8128967285156 516.4530639648438 -398.6766662597656 L 516.5391845703125 -398.6073913574219 L 516.6171875 -398.529052734375 L 520.1009521484375 -395.0277099609375 M 520.1010131835938 -392.1921081542969 L 515.1994018554688 -397.1183776855469 C 514.9743041992188 -397.2994689941406 514.7566528320313 -397.4949340820313 514.5480346679688 -397.7046203613281 C 514.339599609375 -397.9141540527344 514.1453247070313 -398.1326293945313 513.9652709960938 -398.3587036132813 L 508.1085205078125 -404.2449035644531 C 504.8946228027344 -407.47412109375 504.8946228027344 -412.7102966308594 508.1085205078125 -415.9395141601563 C 509.56201171875 -417.4006652832031 511.4673156738281 -418.1312561035156 513.3726196289063 -418.1312561035156 C 515.2779541015625 -418.1312561035156 517.1832275390625 -417.4006652832031 518.63671875 -415.9395141601563 L 520.1227416992188 -414.446044921875 L 521.2764282226563 -415.6056213378906 C 522.8713989257813 -417.2085876464844 525.024169921875 -418.1323547363281 527.1318359375 -418.1323547363281 C 529.0677490234375 -418.1323547363281 530.9655151367188 -417.353271484375 532.3590087890625 -415.6056213378906 C 535.5369262695313 -412.097412109375 535.4190063476563 -407.5425109863281 532.3590087890625 -404.4672241210938 L 525.630615234375 -397.7046203613281 C 525.461181640625 -397.5343627929688 525.2860717773438 -397.3737487792969 525.1056518554688 -397.2223510742188 L 520.1010131835938 -392.1921081542969 Z" stroke="none" fill="#707070"/>
  </g>
</svg>
