<svg id="home_icon" data-name="home icon" xmlns="http://www.w3.org/2000/svg" width="28" height="26.001" viewBox="0 0 28 26.001">
  <g id="Subtraction_3" data-name="Subtraction 3" transform="translate(1989 -3)" fill="#707070">
    <path d="M -1975.499633789063 28.50075531005859 L -1984.49951171875 28.49984550476074 L -1984.49951171875 15.99929523468018 L -1984.49951171875 15.49929523468018 L -1984.99951171875 15.49929523468018 L -1987.726684570313 15.49930286407471 L -1974.999633789063 3.682017087936401 L -1970.339477539063 8.00920581817627 L -1969.499267578125 8.789395332336426 L -1969.499267578125 7.642805576324463 L -1969.499267578125 4.499605655670166 L -1966.499633789063 4.499605655670166 L -1966.499633789063 11.35710525512695 L -1966.499633789063 11.57514572143555 L -1966.33984375 11.72350597381592 L -1962.2734375 15.49929904937744 L -1964.999755859375 15.49930572509766 L -1965.499755859375 15.49930572509766 L -1965.499755859375 15.99930572509766 L -1965.499755859375 28.4988956451416 L -1969.499267578125 28.49969482421875 L -1969.499267578125 18.9998950958252 L -1969.499267578125 18.4998950958252 L -1969.999267578125 18.4998950958252 L -1974.999633789063 18.49990463256836 L -1975.499633789063 18.49990463256836 L -1975.499633789063 18.99990463256836 L -1975.499633789063 28.50075531005859 Z" stroke="none"/>
    <path d="M -1975.999633789063 28.00070381164551 L -1975.999633789063 18.99990463256836 L -1975.999633789063 17.99990463256836 L -1974.999633789063 17.99990463256836 L -1969.999267578125 17.9998950958252 L -1968.999267578125 17.9998950958252 L -1968.999267578125 18.9998950958252 L -1968.999267578125 27.99959564208984 L -1965.999755859375 27.99899482727051 L -1965.999755859375 15.99930572509766 L -1965.999755859375 14.99930572509766 L -1964.999755859375 14.99930572509766 L -1963.546752929688 14.99930191040039 L -1966.680053710938 12.08991527557373 L -1966.999633789063 11.79318523406982 L -1966.999633789063 11.35710525512695 L -1966.999633789063 4.999605655670166 L -1968.999267578125 4.999605655670166 L -1968.999267578125 7.642805576324463 L -1968.999267578125 9.935985565185547 L -1970.6796875 8.375605583190918 L -1974.999633789063 4.36431884765625 L -1986.453369140625 14.99929904937744 L -1984.99951171875 14.99929523468018 L -1983.99951171875 14.99929523468018 L -1983.99951171875 15.99929523468018 L -1983.99951171875 27.99989700317383 L -1975.999633789063 28.00070381164551 M -1974.999633789063 29.00080490112305 L -1975.000610351563 29.00080490112305 L -1984.99951171875 28.99979591369629 L -1984.99951171875 15.99929523468018 L -1989 15.99930572509766 L -1974.999633789063 2.99970555305481 L -1969.999267578125 7.642805576324463 L -1969.999267578125 3.999605655670166 L -1965.999633789063 3.999605655670166 L -1965.999633789063 11.35710525512695 L -1961.000122070313 15.99929523468018 L -1964.999755859375 15.99930572509766 L -1964.999755859375 28.9987964630127 L -1969.999267578125 28.99979591369629 L -1969.999267578125 18.9998950958252 L -1974.999633789063 18.99990463256836 L -1974.999633789063 28.99980545043945 L -1974.999633789063 29.00080490112305 Z" stroke="none" fill="#707070"/>
  </g>
</svg>
