<svg id="location_icon" data-name="location icon" xmlns="http://www.w3.org/2000/svg" width="24" height="30.413" viewBox="0 0 24 30.413">
  <g id="Subtraction_4" data-name="Subtraction 4" transform="translate(-65 986)" fill="#707070">
    <path d="M 77.00102996826172 -956.3165893554688 C 76.52851104736328 -956.8168334960938 76.04811859130859 -957.3187255859375 75.54559326171875 -957.84375 L 75.54225158691406 -957.8472900390625 C 70.83481597900391 -962.7653198242188 65.49980163574219 -968.3389892578125 65.49980163574219 -973.9998168945313 C 65.49980163574219 -977.0716552734375 66.69609069824219 -979.959716796875 68.86831665039063 -982.1319580078125 C 71.04056549072266 -984.3041381835938 73.92860412597656 -985.5004272460938 77.00040435791016 -985.5004272460938 C 80.07180786132813 -985.5004272460938 82.95956420898438 -984.3041381835938 85.13172149658203 -982.1319580078125 C 87.30385589599609 -979.9596557617188 88.50010681152344 -977.0715942382813 88.50010681152344 -973.9998168945313 C 88.50010681152344 -968.3388061523438 84.49075317382813 -964.1498413085938 78.94160461425781 -958.35205078125 L 78.93587493896484 -958.3460693359375 C 78.30902099609375 -957.6911010742188 77.66405487060547 -957.0172119140625 77.00102996826172 -956.3165893554688 Z M 77.00040435791016 -980.5001220703125 C 74.51882171630859 -980.5001220703125 72.49990081787109 -978.481201171875 72.49990081787109 -975.9996337890625 C 72.49990081787109 -973.5185546875 74.51882171630859 -971.5 77.00040435791016 -971.5 C 79.48149108886719 -971.5 81.50000762939453 -973.5185546875 81.50000762939453 -975.9996337890625 C 81.50000762939453 -978.481201171875 79.48149108886719 -980.5001220703125 77.00040435791016 -980.5001220703125 Z" stroke="none"/>
    <path d="M 77.00115203857422 -957.0433959960938 C 77.537841796875 -957.6084594726563 78.06230163574219 -958.156494140625 78.57465362548828 -958.6917724609375 L 78.58038330078125 -958.6978149414063 C 81.3607177734375 -961.6026611328125 83.76188659667969 -964.1114501953125 85.43567657470703 -966.572998046875 C 87.20920562744141 -969.1812744140625 88.00010681152344 -971.4717407226563 88.00010681152344 -973.9998168945313 C 88.00010681152344 -976.9380493164063 86.85585784912109 -979.7005615234375 84.77816772460938 -981.7784423828125 C 82.70044708251953 -983.8561401367188 79.93825531005859 -985.0004272460938 77.00040435791016 -985.0004272460938 C 74.06215667724609 -985.0004272460938 71.29967498779297 -983.8561401367188 69.22187042236328 -981.7784423828125 C 67.14409637451172 -979.7005615234375 65.99980163574219 -976.9381103515625 65.99980163574219 -973.9998168945313 C 65.99980163574219 -968.5397338867188 71.26107788085938 -963.0430908203125 75.90390777587891 -958.1925659179688 L 75.90680694580078 -958.1895141601563 C 76.28205871582031 -957.7974243164063 76.64493560791016 -957.4183349609375 77.00115203857422 -957.0433959960938 M 77.00040435791016 -981.0001220703125 C 79.75719451904297 -981.0001220703125 82.00000762939453 -978.7568969726563 82.00000762939453 -975.9996337890625 C 82.00000762939453 -973.2427978515625 79.75719451904297 -971 77.00040435791016 -971 C 74.24311065673828 -971 71.99990081787109 -973.2427978515625 71.99990081787109 -975.9996337890625 C 71.99990081787109 -978.7568969726563 74.24311065673828 -981.0001220703125 77.00040435791016 -981.0001220703125 M 77.00040435791016 -955.587646484375 L 76.99967193603516 -955.5884399414063 C 76.41475677490234 -956.2125244140625 75.81711578369141 -956.8369750976563 75.18438720703125 -957.498046875 L 75.18059539794922 -957.5020141601563 C 70.40855407714844 -962.487548828125 64.99980163574219 -968.1383056640625 64.99980163574219 -973.9998168945313 C 64.99980163574219 -977.2052612304688 66.24810791015625 -980.2188110351563 68.51475524902344 -982.4855346679688 C 70.78144073486328 -984.7521362304688 73.79503631591797 -986.0004272460938 77.00040435791016 -986.0004272460938 C 80.20537567138672 -986.0004272460938 83.21869659423828 -984.7521362304688 85.48527526855469 -982.4855346679688 C 87.75184631347656 -980.21875 89.00010681152344 -977.2051391601563 89.00010681152344 -973.9998168945313 C 89.00010681152344 -968.13818359375 84.93254089355469 -963.8883056640625 79.30281066894531 -958.00634765625 C 78.56071472167969 -957.23095703125 77.79334259033203 -956.42919921875 77.00113677978516 -955.5884399414063 L 77.00040435791016 -955.587646484375 Z M 77.00040435791016 -980.0001220703125 C 74.79452514648438 -980.0001220703125 72.99990081787109 -978.2055053710938 72.99990081787109 -975.9996337890625 C 72.99990081787109 -973.7942504882813 74.79452514648438 -972 77.00040435791016 -972 C 79.20579528808594 -972 81.00000762939453 -973.7942504882813 81.00000762939453 -975.9996337890625 C 81.00000762939453 -978.2055053710938 79.20579528808594 -980.0001220703125 77.00040435791016 -980.0001220703125 Z" stroke="none" fill="#707070"/>
  </g>
</svg>
