<svg xmlns="http://www.w3.org/2000/svg" width="34" height="34.925" viewBox="0 0 34 34.925">
  <g id="message_icon" data-name="message icon" fill="none">
    <path d="M5,24a5,5,0,0,1-5-5V5A5,5,0,0,1,5,0H29a5,5,0,0,1,5,5V19a5,5,0,0,1-5,5H13.458L5,34.925Z" stroke="none"/>
    <path d="M 7.000401020050049 29.0746955871582 L 11.87646102905273 22.77601051330566 L 12.47697067260742 22.00029945373535 L 13.45795154571533 22.00029945373535 L 28.99980163574219 22.00029945373535 C 30.65423202514648 22.00029945373535 32.00020217895508 20.65432929992676 32.00020217895508 18.99990081787109 L 32.00020217895508 5.000400066375732 C 32.00020217895508 3.345969915390015 30.65423202514648 1.99999988079071 28.99980163574219 1.99999988079071 L 5.000401020050049 1.99999988079071 C 3.34597110748291 1.99999988079071 2.000001192092896 3.345969915390015 2.000001192092896 5.000400066375732 L 2.000001192092896 18.99990081787109 C 2.000001192092896 20.65432929992676 3.34597110748291 22.00029945373535 5.000401020050049 22.00029945373535 L 7.000401020050049 22.00029945373535 L 7.000401020050049 24.00029945373535 L 7.000401020050049 29.0746955871582 M 5.000401020050049 34.92539978027344 L 5.000401020050049 24.00029945373535 C 2.238301038742065 24.00029945373535 1.089477564164554e-06 21.76110076904297 1.089477564164554e-06 18.99990081787109 L 1.089477564164554e-06 5.000400066375732 C 1.089477564164554e-06 2.23829984664917 2.238301038742065 -1.098632793627985e-07 5.000401020050049 -1.098632793627985e-07 L 28.99980163574219 -1.098632793627985e-07 C 31.76100158691406 -1.098632793627985e-07 34.00020217895508 2.23829984664917 34.00020217895508 5.000400066375732 L 34.00020217895508 18.99990081787109 C 34.00020217895508 21.76110076904297 31.76100158691406 24.00029945373535 28.99980163574219 24.00029945373535 L 13.45795154571533 24.00029945373535 L 5.000401020050049 34.92539978027344 Z" stroke="none" fill="#707070"/>
  </g>
</svg>
