<svg xmlns="http://www.w3.org/2000/svg" width="22.652" height="26.771" viewBox="0 0 22.652 26.771">
  <path id="Icon_ionic-md-notifications-outline" data-name="Icon ionic-md-notifications-outline" d="M17.015,8.039a9.3,9.3,0,0,1,1.539.288,6.558,6.558,0,0,1,5,6.426v8.212l.6.6.5.5H9.248l.5-.5.6-.6V14.753a6.558,6.558,0,0,1,5-6.426,11.392,11.392,0,0,1,1.539-.288m.064-4.664a1.967,1.967,0,0,0-2,2.008V6.32A8.676,8.676,0,0,0,8.29,14.753v7.362L5.625,24.792V26.13H28.277V24.792l-2.665-2.677V14.753A8.676,8.676,0,0,0,18.95,6.32V5.383a1.967,1.967,0,0,0-2-2.008Zm2.665,24.094h-5.33a2.665,2.665,0,1,0,5.33,0Z" transform="translate(-5.625 -3.375)" fill="#676767"/>
</svg>
