<svg id="red_heart" data-name="red heart" xmlns="http://www.w3.org/2000/svg" width="32" height="29" viewBox="0 0 32 29">
  <ellipse id="Ellipse_14" data-name="Ellipse 14" cx="16" cy="14.5" rx="16" ry="14.5" fill="#f44336"/>
  <path id="Union_3" data-name="Union 3" d="M7.445,15.341a6.09,6.09,0,0,1-.508-.426,5.966,5.966,0,0,1-.455-.476l-4.592-4.3a5.77,5.77,0,0,1,0-8.539,6.121,6.121,0,0,1,8.253,0l1.165,1.091.9-.846c2.4-2.246,6.406-2.665,8.688,0,2.491,2.561,2.4,5.887,0,8.132l-5.274,4.937q-.2.185-.408.349L11.289,18.94Z" transform="translate(4.635 7.03)" fill="#fff"/>
</svg>
