<svg xmlns="http://www.w3.org/2000/svg" width="40" height="40.001" viewBox="0 0 40 40.001">
  <g id="settings_icon" data-name="settings icon" transform="translate(0 0)">
    <g id="Union_5" data-name="Union 5" transform="translate(-289 856)" fill="none">
      <path d="M304.995-816l-1.478-4.966q-.649-.237-1.271-.528l-4.577,2.446-5.643-5.642,2.468-4.56q-.289-.621-.526-1.268L289-832.024V-840l4.969-1.48q.236-.647.526-1.268l-2.448-4.579,5.643-5.642,4.557,2.466c.414-.193.839-.37,1.271-.528L305.023-856H313l1.478,4.962q.652.237,1.276.529l4.573-2.443,5.643,5.642-2.463,4.552q.292.625.531,1.279l4.958,1.5V-832l-4.959,1.477q-.238.653-.53,1.279l2.443,4.572-5.643,5.642-4.553-2.465q-.624.291-1.277.529L312.975-816Z" stroke="none"/>
      <path d="M 311.4917602539063 -817.9993896484375 L 312.5666198730469 -821.5423583984375 L 312.8568115234375 -822.4988403320313 L 313.7959594726563 -822.8409423828125 C 314.1730346679688 -822.978271484375 314.5485534667969 -823.1338500976563 314.9120483398438 -823.3033447265625 L 315.8241882324219 -823.7285766601563 L 316.709228515625 -823.24951171875 L 319.9505310058594 -821.4949340820313 L 323.4900817871094 -825.0338745117188 L 321.7463684082031 -828.2974853515625 L 321.2750244140625 -829.1796875 L 321.6981201171875 -830.0859985351563 C 321.8681030273438 -830.4501342773438 322.0240783691406 -830.826171875 322.1617126464844 -831.20361328125 L 322.5061645507813 -832.1483764648438 L 323.4699401855469 -832.4353637695313 L 326.99951171875 -833.4863891601563 L 326.99951171875 -838.4920654296875 L 323.4609069824219 -839.5654296875 L 322.5046081542969 -839.85546875 L 322.1623840332031 -840.7943725585938 C 322.0246276855469 -841.17236328125 321.8685913085938 -841.5486450195313 321.6986083984375 -841.9127807617188 L 321.2728271484375 -842.8250122070313 L 321.7518920898438 -843.7103881835938 L 323.5050048828125 -846.9505004882813 L 319.96533203125 -850.4896240234375 L 316.7006530761719 -848.7450561523438 L 315.8188171386719 -848.2738647460938 L 314.9126892089844 -848.6964721679688 C 314.5500793457031 -848.8656005859375 314.1746826171875 -849.0211791992188 313.7969970703125 -849.1588134765625 L 312.8521423339844 -849.503173828125 L 312.5650634765625 -850.4669799804688 L 311.5127258300781 -853.9999389648438 L 306.5068969726563 -853.9999389648438 L 305.4316101074219 -850.4544067382813 L 305.1417541503906 -849.4985961914063 L 304.2034912109375 -849.1561279296875 C 303.8281860351563 -849.0191040039063 303.4541320800781 -848.8639526367188 303.0918273925781 -848.6948852539063 L 302.1796264648438 -848.269287109375 L 301.2943725585938 -848.7483520507813 L 298.0490112304688 -850.5045776367188 L 294.5095520019531 -846.9656372070313 L 296.2579956054688 -843.6947021484375 L 296.7292785644531 -842.8130493164063 L 296.3069152832031 -841.906982421875 C 296.1385192871094 -841.545654296875 295.9839782714844 -841.1728515625 295.8475646972656 -840.7988891601563 L 295.5030517578125 -839.8544921875 L 294.5396118164063 -839.5675048828125 L 290.9999084472656 -838.5131225585938 L 290.9999084472656 -833.50732421875 L 294.5485229492188 -832.4310913085938 L 295.5046081542969 -832.14111328125 L 295.8469543457031 -831.2025756835938 C 295.9836730957031 -830.8277587890625 296.1383056640625 -830.4547729492188 296.3064880371094 -830.0938720703125 L 296.7315368652344 -829.181884765625 L 296.2526245117188 -828.2969970703125 L 294.4945373535156 -825.0486450195313 L 298.0340270996094 -821.509765625 L 301.3030395507813 -823.2568969726563 L 302.1851196289063 -823.7283325195313 L 303.0914611816406 -823.3053588867188 C 303.453369140625 -823.136474609375 303.8273315429688 -822.9813232421875 304.2030029296875 -822.8441772460938 L 305.1473999023438 -822.4994506835938 L 305.4341125488281 -821.5358276367188 L 306.4862976074219 -817.9993896484375 L 311.4917602539063 -817.9993896484375 M 312.9750061035156 -815.9993896484375 L 304.9947204589844 -815.9993896484375 L 303.5171508789063 -820.9654541015625 C 303.0842895507813 -821.1234741210938 302.6602172851563 -821.299560546875 302.2457275390625 -821.4929809570313 L 297.668701171875 -819.0468139648438 L 292.0256958007813 -824.6889038085938 L 294.4937133789063 -829.2489624023438 C 294.3009033203125 -829.6626586914063 294.1256408691406 -830.085205078125 293.9680786132813 -830.5171508789063 L 288.9999084472656 -832.02392578125 L 288.9999084472656 -840.0042114257813 L 293.9686584472656 -841.4842529296875 C 294.1260681152344 -841.915771484375 294.3015747070313 -842.3386840820313 294.4941711425781 -842.7518920898438 L 292.0464172363281 -847.3311157226563 L 297.6893920898438 -852.9732055664063 L 302.2462158203125 -850.50732421875 C 302.6602783203125 -850.7005004882813 303.0852966308594 -850.8770141601563 303.5177001953125 -851.0348510742188 L 305.0234985351563 -855.9999389648438 L 313.0038146972656 -855.9999389648438 L 314.4818420410156 -851.0379028320313 C 314.916259765625 -850.8795776367188 315.3421630859375 -850.7030029296875 315.758056640625 -850.509033203125 L 320.3307189941406 -852.9525146484375 L 325.9736938476563 -847.3104248046875 L 323.5109252929688 -842.7586669921875 C 323.7054443359375 -842.3419189453125 323.8827514648438 -841.9146728515625 324.0414428710938 -841.4793090820313 L 328.99951171875 -839.9754028320313 L 328.99951171875 -831.9951171875 L 324.0407104492188 -830.5185546875 C 323.8819885253906 -830.0831909179688 323.7049255371094 -829.65673828125 323.5103759765625 -829.239990234375 L 325.9530029296875 -824.668212890625 L 320.3099975585938 -819.026123046875 L 315.7571411132813 -821.4906616210938 C 315.3412170410156 -821.2967529296875 314.9149475097656 -821.1199951171875 314.4804992675781 -820.9617309570313 L 312.9750061035156 -815.9993896484375 Z" stroke="none" fill="#707070"/>
    </g>
    <g id="Ellipse_18" data-name="Ellipse 18" transform="translate(9.004 9)" fill="none" stroke="#707070" stroke-width="2">
      <circle cx="11" cy="11" r="11" stroke="none"/>
      <circle cx="11" cy="11" r="10" fill="none"/>
    </g>
  </g>
</svg>
