<svg id="Component_51_2" data-name="Component 51 – 2" xmlns="http://www.w3.org/2000/svg" width="30.743" height="31" viewBox="0 0 30.743 31">
  <g id="Ellipse_22" data-name="Ellipse 22" transform="translate(5)" fill="none" stroke="#707070" stroke-width="2">
    <circle cx="8" cy="8" r="8" stroke="none"/>
    <circle cx="8" cy="8" r="7" fill="none"/>
  </g>
  <g id="Rectangle_44" data-name="Rectangle 44" transform="translate(0 17)" fill="none" stroke="#707070" stroke-width="2">
    <path d="M9,0h8a9,9,0,0,1,9,9v3a2,2,0,0,1-2,2H2a2,2,0,0,1-2-2V9A9,9,0,0,1,9,0Z" stroke="none"/>
    <path d="M9,1h8a8,8,0,0,1,8,8v3a1,1,0,0,1-1,1H2a1,1,0,0,1-1-1V9A8,8,0,0,1,9,1Z" fill="none"/>
  </g>
  <line id="Line_5" data-name="Line 5" x2="10" transform="translate(22.964 4.964) rotate(45)" fill="none" stroke="#707070" stroke-width="2"/>
  <line id="Line_6" data-name="Line 6" x2="10" transform="translate(22.964 12.036) rotate(-45)" fill="none" stroke="#707070" stroke-width="2"/>
</svg>
